<svg width="24" height="24" viewBox="0 0 24 24" fill="none" xmlns="http://www.w3.org/2000/svg">
<g clip-path="url(#clip0_1_1052)">
<g filter="url(#filter0_dd_1_1052)">
<path d="M17.994 2.28839C16.7734 1.19778 15.2786 0.460673 13.6703 0.156407C12.062 -0.147859 10.4012 -0.00776339 8.86658 0.561616C7.33198 1.131 5.98172 2.1081 4.96111 3.38776C3.9405 4.66743 3.28819 6.2012 3.0744 7.82399C2.88242 9.24698 3.03607 10.6953 3.52234 12.0463C4.00861 13.3973 4.81319 14.6114 5.868 15.5856C6.52006 16.1576 7.0462 16.8588 7.41306 17.6448C7.77993 18.4308 7.97952 19.2844 7.9992 20.1516V20.3124C8.00015 21.2908 8.38922 22.2288 9.08103 22.9206C9.77283 23.6124 10.7108 24.0014 11.6892 24.0024H12.3096C13.288 24.0014 14.226 23.6124 14.9178 22.9206C15.6096 22.2288 15.9986 21.2908 15.9996 20.3124V19.7628C16.0146 18.9963 16.1951 18.2422 16.5285 17.5519C16.8619 16.8616 17.3406 16.2514 17.9316 15.7632C18.89 14.9237 19.6592 13.8901 20.1881 12.7309C20.7169 11.5717 20.9935 10.3134 20.9994 9.03926C21.0053 7.76513 20.7404 6.50429 20.2223 5.34026C19.7042 4.17622 18.9446 3.13676 17.994 2.28839ZM12.3096 22.002H11.688C11.2401 22.0014 10.8107 21.8231 10.494 21.5064C10.1772 21.1897 9.99903 20.7603 9.9984 20.3124L9.99 20.0028H13.998V20.3124C13.9974 20.7603 13.8191 21.1897 13.5024 21.5064C13.1857 21.8231 12.7563 22.0014 12.3084 22.002H12.3096ZM16.6092 14.262C15.4708 15.2494 14.6485 16.5504 14.2452 18.0024H12.9996V10.818C13.5822 10.6118 14.087 10.2307 14.4448 9.72684C14.8026 9.22294 14.9961 8.62082 14.9988 8.00279C14.9862 7.74616 14.8754 7.50419 14.6893 7.327C14.5032 7.14982 14.2561 7.05099 13.9992 7.05099C13.7423 7.05099 13.4951 7.14982 13.3091 7.327C13.123 7.50419 13.0122 7.74616 12.9996 8.00279C12.9996 8.26806 12.8942 8.52247 12.7066 8.71004C12.5191 8.89762 12.2647 9.00299 11.9994 9.00299C11.7341 9.00299 11.4797 8.89762 11.2921 8.71004C11.1046 8.52247 10.9992 8.26806 10.9992 8.00279C10.9992 7.73768 10.8939 7.48343 10.7064 7.29597C10.519 7.10851 10.2647 7.00319 9.9996 7.00319C9.73449 7.00319 9.48023 7.10851 9.29277 7.29597C9.10531 7.48343 9 7.73768 9 8.00279C9.00267 8.62082 9.19615 9.22294 9.55399 9.72684C9.91183 10.2307 10.4166 10.6118 10.9992 10.818V18.0024H9.678C9.22695 16.5117 8.38108 15.1707 7.23 14.1216C6.20156 13.1631 5.48561 11.917 5.17536 10.5458C4.86512 9.17462 4.97498 7.74176 5.49063 6.43387C6.00627 5.12598 6.90381 4.00367 8.06634 3.21312C9.22888 2.42256 10.6025 2.00039 12.0084 2.00159C13.7261 1.99656 15.3844 2.63043 16.6608 3.77999C17.4002 4.43975 17.991 5.24908 18.394 6.15437C18.797 7.05967 19.0031 8.04027 18.9986 9.03121C18.994 10.0222 18.779 11.0008 18.3677 11.9024C17.9564 12.804 17.3582 13.6078 16.6128 14.2608H16.6092V14.262Z" fill="#868686"/>
</g>
</g>
<defs>
<filter id="filter0_dd_1_1052" x="-1.00586" y="-0.000457764" width="26.0053" height="32.0029" filterUnits="userSpaceOnUse" color-interpolation-filters="sRGB">
<feFlood flood-opacity="0" result="BackgroundImageFix"/>
<feColorMatrix in="SourceAlpha" type="matrix" values="0 0 0 0 0 0 0 0 0 0 0 0 0 0 0 0 0 0 127 0" result="hardAlpha"/>
<feOffset dy="4"/>
<feGaussianBlur stdDeviation="2"/>
<feComposite in2="hardAlpha" operator="out"/>
<feColorMatrix type="matrix" values="0 0 0 0 0 0 0 0 0 0 0 0 0 0 0 0 0 0 0.25 0"/>
<feBlend mode="normal" in2="BackgroundImageFix" result="effect1_dropShadow_1_1052"/>
<feColorMatrix in="SourceAlpha" type="matrix" values="0 0 0 0 0 0 0 0 0 0 0 0 0 0 0 0 0 0 127 0" result="hardAlpha"/>
<feOffset dy="4"/>
<feGaussianBlur stdDeviation="2"/>
<feComposite in2="hardAlpha" operator="out"/>
<feColorMatrix type="matrix" values="0 0 0 0 0 0 0 0 0 0 0 0 0 0 0 0 0 0 0.25 0"/>
<feBlend mode="normal" in2="effect1_dropShadow_1_1052" result="effect2_dropShadow_1_1052"/>
<feBlend mode="normal" in="SourceGraphic" in2="effect2_dropShadow_1_1052" result="shape"/>
</filter>
<clipPath id="clip0_1_1052">
<rect width="24" height="24" fill="white"/>
</clipPath>
</defs>
</svg>
